# xmcd CD database file
#
# Track frame offsets:
#	150
#	16304
#	35497
#	54193
#	72411
#	86722
#	104628
#	120130
#	138760
#	160975
#	180201
#	198316
#	215397
#	233539
#
# Disc length: 3602 seconds
#
# Revision: 0
# Processed by: cddbd v1.5.2PL0 Copyright (c) Steve Scherf et al.
# Submitted via: CDex 1.70beta2
#
DISCID=ad0e100e
DTITLE=Sonya Kitchell - Words Came Back To Me
DYEAR=2007
DGENRE=Jazz
TTITLE0=Let Me Go
TTITLE1=Train
TTITLE2=Can`t Get You Out Of My Mind
TTITLE3=Words
TTITLE4=Cold Day
TTITLE5=No Matter What
TTITLE6=Simple Melody
TTITLE7=Think Of You
TTITLE8=Too Beautiful
TTITLE9=Tinted Glass
TTITLE10=I`d Love You
TTITLE11=Jerry
TTITLE12=Alone I Swim
TTITLE13=Clara
EXTD=YEAR: 2007
EXTT0=
EXTT1=
EXTT2=
EXTT3=
EXTT4=
EXTT5=
EXTT6=
EXTT7=
EXTT8=
EXTT9=
EXTT10=
EXTT11=
EXTT12=
EXTT13=
PLAYORDER=
